{
	"asset":{
		"generator":"Khronos glTF Blender I/O v4.5.48",
		"version":"2.0"
	},
	"scene":0,
	"scenes":[
		{
			"name":"Scene",
			"nodes":[
				6
			]
		}
	],
	"nodes":[
		{
			"mesh":0,
			"name":"Object_4"
		},
		{
			"mesh":1,
			"name":"Object_5"
		},
		{
			"mesh":2,
			"name":"Object_6"
		},
		{
			"children":[
				0,
				1,
				2
			],
			"name":"Cube_0",
			"rotation":[
				0,
				-0.7071065902709961,
				0,
				0.7071070671081543
			],
			"scale":[
				2.500000476837158,
				2.499999761581421,
				5.000000953674316
			],
			"translation":[
				0,
				2.499999761581421,
				0
			]
		},
		{
			"children":[
				3
			],
			"name":"GLTF_SceneRootNode",
			"rotation":[
				0.70710688829422,
				0,
				0,
				0.7071066498756409
			]
		},
		{
			"children":[
				4
			],
			"name":"root"
		},
		{
			"children":[
				5
			],
			"name":"Sketchfab_model",
			"rotation":[
				-0.70710688829422,
				0,
				0,
				0.7071066498756409
			]
		}
	],
	"materials":[
		{
			"doubleSided":true,
			"emissiveFactor":[
				1,
				1,
				1
			],
			"emissiveTexture":{
				"index":0
			},
			"name":"raw_plank_wall",
			"normalTexture":{
				"index":1,
				"texCoord":1
			},
			"pbrMetallicRoughness":{
				"baseColorTexture":{
					"index":2
				},
				"metallicFactor":0,
				"metallicRoughnessTexture":{
					"index":3,
					"texCoord":1
				}
			}
		},
		{
			"doubleSided":true,
			"emissiveFactor":[
				1,
				1,
				1
			],
			"emissiveTexture":{
				"index":4
			},
			"name":"grey_plaster_02",
			"normalTexture":{
				"index":5,
				"texCoord":1
			},
			"pbrMetallicRoughness":{
				"baseColorTexture":{
					"index":6
				},
				"metallicFactor":0,
				"metallicRoughnessTexture":{
					"index":7,
					"texCoord":1
				}
			}
		},
		{
			"doubleSided":true,
			"emissiveFactor":[
				1,
				1,
				1
			],
			"emissiveTexture":{
				"index":8
			},
			"name":"wood_planks_grey",
			"normalTexture":{
				"index":9,
				"texCoord":1
			},
			"pbrMetallicRoughness":{
				"baseColorTexture":{
					"index":10
				},
				"metallicFactor":0,
				"metallicRoughnessTexture":{
					"index":11,
					"texCoord":1
				}
			}
		}
	],
	"meshes":[
		{
			"name":"Object_0",
			"primitives":[
				{
					"attributes":{
						"POSITION":0,
						"NORMAL":1,
						"TEXCOORD_0":2,
						"TEXCOORD_1":3,
						"TEXCOORD_2":4,
						"TEXCOORD_3":5,
						"TEXCOORD_4":6
					},
					"indices":7,
					"material":0
				}
			]
		},
		{
			"name":"Object_1",
			"primitives":[
				{
					"attributes":{
						"POSITION":8,
						"NORMAL":9,
						"TEXCOORD_0":10,
						"TEXCOORD_1":11,
						"TEXCOORD_2":12,
						"TEXCOORD_3":13,
						"TEXCOORD_4":14
					},
					"indices":15,
					"material":1
				}
			]
		},
		{
			"name":"Object_2",
			"primitives":[
				{
					"attributes":{
						"POSITION":16,
						"NORMAL":17,
						"TEXCOORD_0":18,
						"TEXCOORD_1":19,
						"TEXCOORD_2":20,
						"TEXCOORD_3":21,
						"TEXCOORD_4":22
					},
					"indices":23,
					"material":2
				}
			]
		}
	],
	"textures":[
		{
			"sampler":0,
			"source":0
		},
		{
			"sampler":0,
			"source":1
		},
		{
			"sampler":0,
			"source":0
		},
		{
			"sampler":0,
			"source":2
		},
		{
			"sampler":0,
			"source":3
		},
		{
			"sampler":0,
			"source":4
		},
		{
			"sampler":0,
			"source":3
		},
		{
			"sampler":0,
			"source":5
		},
		{
			"sampler":0,
			"source":6
		},
		{
			"sampler":0,
			"source":7
		},
		{
			"sampler":0,
			"source":6
		},
		{
			"sampler":0,
			"source":8
		}
	],
	"images":[
		{
			"mimeType":"image/png",
			"name":"raw_plank_wall_baseColor",
			"uri":"raw_plank_wall_baseColor.png"
		},
		{
			"mimeType":"image/jpeg",
			"name":"raw_plank_wall_normal",
			"uri":"raw_plank_wall_normal.jpg"
		},
		{
			"mimeType":"image/png",
			"name":"raw_plank_wall_metallicRoughness",
			"uri":"raw_plank_wall_metallicRoughness.png"
		},
		{
			"mimeType":"image/png",
			"name":"grey_plaster_02_baseColor",
			"uri":"grey_plaster_02_baseColor.png"
		},
		{
			"mimeType":"image/jpeg",
			"name":"grey_plaster_02_normal",
			"uri":"grey_plaster_02_normal.jpg"
		},
		{
			"mimeType":"image/png",
			"name":"grey_plaster_02_metallicRoughness",
			"uri":"grey_plaster_02_metallicRoughness.png"
		},
		{
			"mimeType":"image/png",
			"name":"wood_planks_grey_baseColor",
			"uri":"wood_planks_grey_baseColor.png"
		},
		{
			"mimeType":"image/jpeg",
			"name":"wood_planks_grey_normal",
			"uri":"wood_planks_grey_normal.jpg"
		},
		{
			"mimeType":"image/png",
			"name":"wood_planks_grey_metallicRoughness",
			"uri":"wood_planks_grey_metallicRoughness.png"
		}
	],
	"accessors":[
		{
			"bufferView":0,
			"componentType":5126,
			"count":244,
			"max":[
				1,
				-1,
				1
			],
			"min":[
				-1,
				-1,
				-1
			],
			"type":"VEC3"
		},
		{
			"bufferView":1,
			"componentType":5126,
			"count":244,
			"type":"VEC3"
		},
		{
			"bufferView":2,
			"componentType":5126,
			"count":244,
			"type":"VEC2"
		},
		{
			"bufferView":3,
			"componentType":5126,
			"count":244,
			"type":"VEC2"
		},
		{
			"bufferView":4,
			"componentType":5126,
			"count":244,
			"type":"VEC2"
		},
		{
			"bufferView":5,
			"componentType":5126,
			"count":244,
			"type":"VEC2"
		},
		{
			"bufferView":6,
			"componentType":5126,
			"count":244,
			"type":"VEC2"
		},
		{
			"bufferView":7,
			"componentType":5123,
			"count":882,
			"type":"SCALAR"
		},
		{
			"bufferView":8,
			"componentType":5126,
			"count":1282,
			"max":[
				1,
				-0.20000004768371582,
				1
			],
			"min":[
				-1,
				-1,
				-1
			],
			"type":"VEC3"
		},
		{
			"bufferView":9,
			"componentType":5126,
			"count":1282,
			"type":"VEC3"
		},
		{
			"bufferView":10,
			"componentType":5126,
			"count":1282,
			"type":"VEC2"
		},
		{
			"bufferView":11,
			"componentType":5126,
			"count":1282,
			"type":"VEC2"
		},
		{
			"bufferView":12,
			"componentType":5126,
			"count":1282,
			"type":"VEC2"
		},
		{
			"bufferView":13,
			"componentType":5126,
			"count":1282,
			"type":"VEC2"
		},
		{
			"bufferView":14,
			"componentType":5126,
			"count":1282,
			"type":"VEC2"
		},
		{
			"bufferView":15,
			"componentType":5123,
			"count":3030,
			"type":"SCALAR"
		},
		{
			"bufferView":16,
			"componentType":5126,
			"count":156,
			"max":[
				1,
				-0.20000004768371582,
				1
			],
			"min":[
				-1,
				-0.20000004768371582,
				-1
			],
			"type":"VEC3"
		},
		{
			"bufferView":17,
			"componentType":5126,
			"count":156,
			"type":"VEC3"
		},
		{
			"bufferView":18,
			"componentType":5126,
			"count":156,
			"type":"VEC2"
		},
		{
			"bufferView":19,
			"componentType":5126,
			"count":156,
			"type":"VEC2"
		},
		{
			"bufferView":20,
			"componentType":5126,
			"count":156,
			"type":"VEC2"
		},
		{
			"bufferView":21,
			"componentType":5126,
			"count":156,
			"type":"VEC2"
		},
		{
			"bufferView":22,
			"componentType":5126,
			"count":156,
			"type":"VEC2"
		},
		{
			"bufferView":23,
			"componentType":5123,
			"count":378,
			"type":"SCALAR"
		}
	],
	"bufferViews":[
		{
			"buffer":0,
			"byteLength":2928,
			"byteOffset":0,
			"target":34962
		},
		{
			"buffer":0,
			"byteLength":2928,
			"byteOffset":2928,
			"target":34962
		},
		{
			"buffer":0,
			"byteLength":1952,
			"byteOffset":5856,
			"target":34962
		},
		{
			"buffer":0,
			"byteLength":1952,
			"byteOffset":7808,
			"target":34962
		},
		{
			"buffer":0,
			"byteLength":1952,
			"byteOffset":9760,
			"target":34962
		},
		{
			"buffer":0,
			"byteLength":1952,
			"byteOffset":11712,
			"target":34962
		},
		{
			"buffer":0,
			"byteLength":1952,
			"byteOffset":13664,
			"target":34962
		},
		{
			"buffer":0,
			"byteLength":1764,
			"byteOffset":15616,
			"target":34963
		},
		{
			"buffer":0,
			"byteLength":15384,
			"byteOffset":17380,
			"target":34962
		},
		{
			"buffer":0,
			"byteLength":15384,
			"byteOffset":32764,
			"target":34962
		},
		{
			"buffer":0,
			"byteLength":10256,
			"byteOffset":48148,
			"target":34962
		},
		{
			"buffer":0,
			"byteLength":10256,
			"byteOffset":58404,
			"target":34962
		},
		{
			"buffer":0,
			"byteLength":10256,
			"byteOffset":68660,
			"target":34962
		},
		{
			"buffer":0,
			"byteLength":10256,
			"byteOffset":78916,
			"target":34962
		},
		{
			"buffer":0,
			"byteLength":10256,
			"byteOffset":89172,
			"target":34962
		},
		{
			"buffer":0,
			"byteLength":6060,
			"byteOffset":99428,
			"target":34963
		},
		{
			"buffer":0,
			"byteLength":1872,
			"byteOffset":105488,
			"target":34962
		},
		{
			"buffer":0,
			"byteLength":1872,
			"byteOffset":107360,
			"target":34962
		},
		{
			"buffer":0,
			"byteLength":1248,
			"byteOffset":109232,
			"target":34962
		},
		{
			"buffer":0,
			"byteLength":1248,
			"byteOffset":110480,
			"target":34962
		},
		{
			"buffer":0,
			"byteLength":1248,
			"byteOffset":111728,
			"target":34962
		},
		{
			"buffer":0,
			"byteLength":1248,
			"byteOffset":112976,
			"target":34962
		},
		{
			"buffer":0,
			"byteLength":1248,
			"byteOffset":114224,
			"target":34962
		},
		{
			"buffer":0,
			"byteLength":756,
			"byteOffset":115472,
			"target":34963
		}
	],
	"samplers":[
		{
			"magFilter":9729,
			"minFilter":9987
		}
	],
	"buffers":[
		{
			"byteLength":116228,
			"uri":"map.bin"
		}
	]
}
